HIERARCHY
ROOT Hips
{
	OFFSET 0.00000 0.00000 0.00000
	CHANNELS 6 Xposition Yposition Zposition Zrotation Yrotation Xrotation 
	JOINT LHipJoint
	{
		OFFSET 0 0 0
		CHANNELS 3 Zrotation Yrotation Xrotation
		JOINT LeftHip
		{
			OFFSET 2.36090 -1.39315 1.24752
			CHANNELS 3 Zrotation Yrotation Xrotation
			JOINT LeftKnee
			{
				OFFSET 2.06810 -5.68207 0.00000
				CHANNELS 3 Zrotation Yrotation Xrotation
				JOINT LeftAnkle
				{
					OFFSET 2.46631 -6.77613 0.00000
					CHANNELS 3 Zrotation Yrotation Xrotation
					JOINT LeftToe
					{
						OFFSET 0.26031 -0.71520 1.99545
						CHANNELS 3 Zrotation Yrotation Xrotation
						End Site
						{
							OFFSET 0.00000 -0.00000 1.05957
						}
					}
				}
			}
		}
	}
	JOINT RHipJoint
	{
		OFFSET 0 0 0
		CHANNELS 3 Zrotation Yrotation Xrotation
		JOINT RightHip
		{
			OFFSET -2.25243 -1.39315 1.24752
			CHANNELS 3 Zrotation Yrotation Xrotation
			JOINT RightKnee
			{
				OFFSET -2.17343 -5.97145 0.00000
				CHANNELS 3 Zrotation Yrotation Xrotation
				JOINT RightAnkle
				{
					OFFSET -2.52372 -6.93386 0.00000
					CHANNELS 3 Zrotation Yrotation Xrotation
					JOINT RightToe
					{
						OFFSET -0.22538 -0.61923 2.11447
						CHANNELS 3 Zrotation Yrotation Xrotation
						End Site
						{
							OFFSET -0.00000 -0.00000 1.10506
						}
					}
				}
			}
		}
	}
	JOINT lowerback
	{
		OFFSET 0 0 0
		CHANNELS 3 Zrotation Yrotation Xrotation
		JOINT Chest
		{
			OFFSET 0.01594 2.13103 0.08007
			CHANNELS 3 Zrotation Yrotation Xrotation
			JOINT Chest2
			{
				OFFSET 0.01393 2.09723 0.18338
				CHANNELS 3 Zrotation Yrotation Xrotation
				JOINT lowerneck
				{
					OFFSET 0 0 0
					CHANNELS 3 Zrotation Yrotation Xrotation
					JOINT Neck
					{
						OFFSET 0.05351 1.38915 0.32494
						CHANNELS 3 Zrotation Yrotation Xrotation
						JOINT Head
						{
							OFFSET 0.00711 1.45992 -0.21666
							CHANNELS 3 Zrotation Yrotation Xrotation
							End Site
							{
								OFFSET -0.00433 1.47702 -0.11056
							}
						}
					}
				}
				JOINT LeftCollar
				{
					OFFSET 0 0 0
					CHANNELS 3 Zrotation Yrotation Xrotation
					JOINT LeftShoulder
					{
						OFFSET 2.87198 0.92249 0.11132
CHANNELS 3 Zrotation Xrotation Yrotation
						JOINT LeftElbow
						{
OFFSET 0 -5.527310 0.000000
CHANNELS 3 Zrotation Xrotation Yrotation
							JOINT LeftWrist
							{
OFFSET 0 -3.110590 0.000000
CHANNELS 3 Zrotation Xrotation Yrotation
								JOINT lhand
								{
									OFFSET 0 0 0
CHANNELS 3 Zrotation Xrotation Yrotation
									JOINT LFingers
									{
OFFSET 0 -0.419630 0.000000
CHANNELS 3 Zrotation Xrotation Yrotation
										End Site
										{
OFFSET 0 -0.338310 0.000000
										}
									}
								}
								JOINT LThumb
								{
OFFSET 0 0.000000 0.000000
CHANNELS 3 Zrotation Xrotation Yrotation
									End Site
									{
OFFSET 0 -0.343480 0.343480
									}
								}
							}
						}
					}
				}
				JOINT RightCollar
				{
					OFFSET 0 0 0
					CHANNELS 3 Zrotation Yrotation Xrotation
					JOINT RightShoulder
					{
						OFFSET -2.94710 0.68072 0.32187
CHANNELS 3 Zrotation Xrotation Yrotation
						JOINT RightElbow
						{
OFFSET 0 -5.253960 -0.000000
CHANNELS 3 Zrotation Xrotation Yrotation
							JOINT RightWrist
							{
OFFSET 0 -3.105670 0.000000
CHANNELS 3 Zrotation Xrotation Yrotation
								JOINT rhand
								{
									OFFSET 0 0 0
CHANNELS 3 Zrotation Xrotation Yrotation
									JOINT RFingers
									{
OFFSET 0 -0.498680 0.000000
CHANNELS 3 Zrotation Xrotation Yrotation
										End Site
										{
OFFSET 0 -0.402040 0.000000
										}
									}
								}
								JOINT RThumb
								{
OFFSET 0 0.000000 0.000000
CHANNELS 3 Zrotation Xrotation Yrotation
									End Site
									{
OFFSET 0 -0.408180 0.408180
									}
								}
							}
						}
					}
				}
			}
		}
	}
}
MOTION
Frames: 10
Frame Time: .0083333
4.5796 3.0902 24.4583 -57.5515 -58.7996 40.1914 0.0000 0.0000 0.0000 -56.2757 -20.3070 -93.5562 33.9952 14.4330 134.9988 -6.6265 40.4227 -13.7479 13.3082 18.8906 70.0801 0.0000 0.0000 0.0000 -47.8796 49.3567 -85.3712 -35.8027 -12.4185 142.7712 -10.3627 -1.2654 61.9826 -2.9572 -10.6255 31.0270 6.5320 1.1351 28.3283 7.4327 3.6150 5.6619 3.4019 1.3577 -9.3819 2.1650 0.4676 -23.5749 5.7413 -2.8136 31.6378 1.4336 -0.2299 15.1077 -0.0000 -0.0000 0.0000 2.8261 -7.6111 -17.9714 18.5986 -28.9169 4.8352 116.1724 90.6126 -14.862 0.0 0.0 0.0 -7.1250 0.0 0.0 145.6151 47.996 -128.9543 -0.0000 -0.0000 0.0000 -47.0117 -39.1546 36.9249 -30.2249 -41.0854 -11.5571 26.5142 -7.1493 12.9257 0.0 0.0 0.0 7.1250 0.0 -0.0 43.7844 38.5985 9.1316
4.5688 3.1208 24.4686 -57.2430 -58.8389 39.1329 0.0000 0.0000 0.0000 -57.1765 -19.1485 -92.4060 34.0089 14.4197 135.0539 -5.7778 38.4066 -11.5159 13.3734 18.9129 70.2814 0.0000 0.0000 0.0000 -46.6160 52.0993 -83.7640 -35.6615 -12.5977 142.1194 -10.3695 -2.4255 61.8280 -3.2473 -11.0850 32.5671 6.5941 1.0986 29.8135 7.2596 3.6764 5.8683 3.1447 1.3539 -9.8681 2.1532 0.4513 -23.6766 5.8599 -2.8584 31.4554 1.4735 -0.2322 15.0516 -0.0000 0.0000 0.0000 2.8559 -9.4493 -16.0075 17.0626 -26.9402 4.1156 117.3237 93.4652 -14.4521 0.0 0.0 0.0 -7.1250 0.0 0.0 147.0850 47.1105 -131.1709 -0.0000 0.0000 0.0000 -46.662 -39.331 37.0972 -30.0117 -40.9034 -11.4173 26.2899 -6.8488 12.8577 0.0 0.0 0.0 7.1250 0.0 -0.0 43.6117 38.5756 9.1045
4.5553 3.1496 24.4772 -56.9269 -58.8929 38.1503 0.0000 0.0000 0.0000 -57.9751 -17.9992 -91.3671 34.0146 14.4142 135.0770 -5.1184 36.6741 -9.8191 13.4293 18.9317 70.4537 0.0000 0.0000 0.0000 -45.3056 54.5242 -82.1529 -35.5302 -12.7606 141.5212 -10.3939 -3.5174 61.7531 -3.5567 -11.5458 34.1437 6.6957 1.0477 31.4093 7.1727 3.7552 5.6533 2.7174 1.3122 -10.1082 2.1510 0.4365 -23.7748 5.9838 -2.9056 31.2617 1.5131 -0.2340 14.9900 -0.0000 -0.0000 0.0000 2.918 -11.1043 -13.8548 15.6269 -25.0122 3.4867 118.2894 96.5998 -13.8462 0.0 0.0 0.0 -7.1250 0.0 0.0 148.4473 45.9473 -133.1935 -0.0000 -0.0000 0.0000 -46.2952 -39.507 37.2864 -29.8182 -40.737 -11.2908 26.0569 -6.5716 12.7883 0.0 0.0 0.0 7.1250 0.0 -0.0 43.4323 38.5524 9.0754
4.5204 3.2979 24.4992 -56.5909 -58.9432 37.3308 0.0000 0.0000 0.0000 -58.5259 -12.5425 -89.9463 33.9902 14.4379 134.9788 -4.6600 36.2094 -4.3690 13.4771 18.9477 70.6009 0.0000 0.0000 0.0000 108.4073 -25.3709 112.4134 -35.0896 -13.2821 139.5660 -5.8043 30.0059 60.5478 -9.6497 -17.2081 58.3109 6.6825 1.0393 32.6333 6.9915 3.8106 5.7521 2.5009 1.3086 -10.4813 2.1462 0.4238 -23.8670 6.1043 -2.9464 31.0636 1.5526 -0.2343 14.9251 0.0000 -0.0000 0.0000 3.0066 -12.5042 -11.6335 14.3669 -23.2569 2.9715 118.9756 99.7122 -13.1866 0.0 0.0 0.0 -7.1250 0.0 0.0 149.5191 44.7451 -134.7749 0.0000 -0.0000 0.0000 -45.9293 -39.6846 37.5025 -29.6430 -40.5854 -11.1766 25.8147 -6.3212 12.7158 0.0 0.0 0.0 7.1250 0.0 -0.0 43.2451 38.5276 9.0459
4.5005 3.3189 24.5053 -56.2268 -58.9740 36.7177 0.0000 0.0000 0.0000 -59.0301 -11.8927 -89.3459 33.9669 14.4603 134.8856 -4.3726 35.4230 -3.5450 13.5166 18.9608 70.7227 0.0000 0.0000 0.0000 108.4097 -27.1590 112.7223 -35.0098 -13.3728 139.2196 -6.0910 30.1605 61.3755 -9.8004 -17.2961 58.8193 6.6232 1.0498 33.5886 6.8244 3.8567 5.8118 2.3289 1.3083 -10.7845 2.1324 0.4124 -23.9497 6.2161 -2.9777 30.8677 1.5916 -0.2333 14.8589 0.0000 0.0000 0.0000 3.1281 -13.5873 -9.5565 13.3483 -21.7954 2.5812 119.3437 102.3802 -12.6704 0.0 0.0 0.0 -7.1250 0.0 0.0 150.1729 43.8244 -135.737 0.0000 0.0000 0.0000 -45.569 -39.8626 37.7474 -29.4824 -40.4456 -11.0723 25.5684 -6.098 12.6422 0.0 0.0 0.0 7.1250 0.0 -0.0 43.0543 38.5023 9.0158
4.4769 3.3360 24.5082 -55.8326 -58.9776 36.3089 0.0000 0.0000 0.0000 -59.4201 -11.6748 -88.9891 33.9439 14.4825 134.7934 -4.2153 35.0173 -2.9537 13.5463 18.9706 70.8139 0.0000 0.0000 0.0000 108.4018 -28.3601 112.9641 -34.9448 -13.4456 138.9396 -6.3648 30.2472 62.1125 -9.9401 -17.3761 59.2881 6.5265 1.0777 34.2728 6.6767 3.8956 5.8339 2.2012 1.3127 -11.0218 2.1035 0.4002 -24.0224 6.3118 -2.9982 30.6815 1.6287 -0.2319 14.7944 0.0000 -0.0000 0.0000 3.2822 -14.3185 -7.8697 12.6137 -20.7186 2.3148 119.4215 104.2263 -12.4364 0.0 0.0 0.0 -7.1250 0.0 0.0 150.3859 43.41 -136.0436 0.0000 -0.0000 0.0000 -45.2199 -40.0374 38.0147 -29.3318 -40.3137 -10.9747 25.3285 -5.8997 12.5688 0.0 0.0 0.0 7.1250 0.0 -0.0 42.8670 38.4759 8.9886
4.4507 3.3498 24.5090 -55.4113 -58.9552 36.0758 0.0000 0.0000 0.0000 -59.6984 -11.8375 -88.8362 33.9276 14.4982 134.7282 -4.1357 34.8483 -2.5200 13.5635 18.9763 70.8670 0.0000 0.0000 0.0000 108.3674 -29.0474 113.1994 -34.8953 -13.5007 138.7269 -6.6318 30.2285 62.7562 -10.0585 -17.4426 59.6836 6.4026 1.1218 34.7217 6.5508 3.9327 5.8241 2.1127 1.3233 -11.2056 2.0545 0.3846 -24.0877 6.3837 -3.0074 30.5125 1.6618 -0.2314 14.7351 0.0000 0.0000 0.0000 3.4584 -14.7005 -6.7706 12.1765 -20.0689 2.1625 119.2864 105.0392 -12.5106 0.0 0.0 0.0 -7.1250 0.0 0.0 150.2248 43.5436 -135.7936 0.0000 0.0000 0.0000 -44.8888 -40.2058 38.2928 -29.1856 -40.1851 -10.8803 25.1032 -5.7228 12.497 0.0 0.0 0.0 7.1250 0.0 -0.0 42.6891 38.4483 8.9662
4.4230 3.3614 24.5088 -54.9689 -58.9120 35.9838 0.0000 0.0000 0.0000 -59.8622 -12.2965 -88.8505 33.9250 14.5006 134.7182 -4.0924 34.7773 -2.2167 13.5670 18.9774 70.8776 0.0000 0.0000 0.0000 108.3305 -29.3315 113.3623 -34.8563 -13.5439 138.5599 -6.8420 30.1925 63.2450 -10.1497 -17.4932 59.9876 6.2610 1.1812 34.9821 6.4474 3.9742 5.7890 2.0563 1.3416 -11.3484 1.9829 0.3637 -24.1503 6.4238 -3.0049 30.3656 1.6883 -0.2328 14.6839 -0.0000 -0.0000 0.0000 3.6389 -14.778 -6.3165 12.0146 -19.8266 2.1073 119.0393 104.9095 -12.7939 0.0 0.0 0.0 -7.1250 0.0 0.0 149.8329 44.0496 -135.2064 -0.0000 -0.0000 0.0000 -44.5823 -40.3652 38.5677 -29.0398 -40.056 -10.7863 24.9018 -5.5643 12.4312 0.0 0.0 0.0 7.1250 0.0 -0.0 42.5288 38.4221 8.9479
4.3945 3.3717 24.5085 -54.5119 -58.8528 36.0025 0.0000 0.0000 0.0000 -59.9119 -12.9733 -89.0022 33.9401 14.4861 134.7783 -4.0661 34.7270 -2.0563 13.5572 18.9742 70.8476 0.0000 0.0000 0.0000 108.2942 -29.3021 113.4552 -34.8259 -13.5772 138.4307 -6.9852 30.1572 63.5690 -10.2124 -17.5276 60.1960 6.1101 1.2546 35.0961 6.3656 4.0244 5.7350 2.0251 1.3680 -11.4596 1.8901 0.3370 -24.2154 6.4267 -2.9902 30.2420 1.7061 -0.2361 14.6423 0.0000 0.0000 0.0000 3.8032 -14.6293 -6.4041 12.0763 -19.9189 2.1282 118.7793 104.1986 -13.1168 0.0 0.0 0.0 -7.1250 0.0 0.0 149.3937 44.6304 -134.5569 0.0000 0.0000 0.0000 -44.3047 -40.5145 38.8273 -28.8930 -39.9254 -10.692 24.7268 -5.4219 12.377 0.0 0.0 0.0 7.1250 0.0 -0.0 42.3909 38.4018 8.929
4.3656 3.3812 24.5084 -54.0479 -58.7789 36.1187 0.0000 0.0000 0.0000 -59.8526 -13.8283 -89.2810 33.9739 14.4536 134.9137 -4.0578 34.6919 -2.0695 13.5365 18.9674 70.7839 0.0000 0.0000 0.0000 108.2629 -29.0095 113.4775 -34.8042 -13.6009 138.3382 -7.0609 30.1274 63.7333 -10.2497 -17.5479 60.3197 5.9565 1.3398 35.0862 6.3033 4.0843 5.6665 2.0131 1.4022 -11.5422 1.7807 0.3055 -24.2875 6.3921 -2.9636 30.1390 1.7141 -0.2410 14.6098 0.0000 0.0000 0.0000 3.9336 -14.3462 -6.8317 12.2951 -20.2457 2.2033 118.5853 103.3882 -13.309 0.0 0.0 0.0 -7.1250 0.0 0.0 149.0919 44.9799 -134.1086 0.0000 0.0000 0.0000 -44.0557 -40.6537 39.0647 -28.7475 -39.7954 -10.5988 24.5744 -5.2932 12.3402 0.0 0.0 0.0 7.1250 0.0 -0.0 42.2761 38.3925 8.9023
